HIERARCHY
ROOT Hips
{
 OFFSET 0.000000 0.000000 0.000000
 CHANNELS 6 Xposition Yposition Zposition Yrotation Xrotation Zrotation
 JOINT Chest
 {
  OFFSET 0.000000 10.080317 -0.001081
  CHANNELS 3 Yrotation Xrotation Zrotation
  JOINT Chest2
  {
   OFFSET 0.000000 11.096852 0.001963
   CHANNELS 3 Yrotation Xrotation Zrotation
   JOINT Chest3
   {
    OFFSET 0.000000 10.026525 0.000000
    CHANNELS 3 Yrotation Xrotation Zrotation
    JOINT Chest4
    {
     OFFSET 0.000000 10.026525 0.000000
     CHANNELS 3 Yrotation Xrotation Zrotation
     JOINT Neck
     {
      OFFSET 0.000000 14.108171 0.000000
      CHANNELS 3 Yrotation Xrotation Zrotation
      JOINT Head
      {
       OFFSET 0.000000 9.333493 0.004668
       CHANNELS 3 Yrotation Xrotation Zrotation
       End Site
       {
        OFFSET 0.000000 17.851786 0.002438
       }
      }
     }
     JOINT RightCollar
     {
      OFFSET -3.071622 7.873185 0.000000
      CHANNELS 3 Yrotation Xrotation Zrotation
      JOINT RightShoulder
      {
       OFFSET -14.378659 0.000000 0.000000
       CHANNELS 3 Yrotation Xrotation Zrotation
       JOINT RightElbow
       {
        OFFSET -30.778728 0.000000 0.000000
        CHANNELS 3 Yrotation Xrotation Zrotation
        JOINT RightWrist
        {
         OFFSET -25.164217 0.000000 0.000000
         CHANNELS 3 Yrotation Xrotation Zrotation
         End Site
         {
          OFFSET -18.796788 0.000000 0.000000
         }
        }
       }
      }
     }
     JOINT LeftCollar
     {
      OFFSET 3.071622 7.873185 0.000000
      CHANNELS 3 Yrotation Xrotation Zrotation
      JOINT LeftShoulder
      {
       OFFSET 14.378659 0.000000 0.000000
       CHANNELS 3 Yrotation Xrotation Zrotation
       JOINT LeftElbow
       {
        OFFSET 30.778728 0.000000 0.000000
        CHANNELS 3 Yrotation Xrotation Zrotation
        JOINT LeftWrist
        {
         OFFSET 25.164217 0.000000 0.000000
         CHANNELS 3 Yrotation Xrotation Zrotation
         End Site
         {
          OFFSET 18.796788 0.000000 0.000000
         }
        }
       }
      }
     }
    }
   }
  }
 }
 JOINT RightHip
 {
  OFFSET -8.194923 0.005295 0.000540
  CHANNELS 3 Yrotation Xrotation Zrotation
  JOINT RightKnee
  {
   OFFSET 0.000000 -42.473320 -0.000511
   CHANNELS 3 Yrotation Xrotation Zrotation
   JOINT RightAnkle
   {
    OFFSET 0.000000 -41.474259 -0.000865
    CHANNELS 3 Yrotation Xrotation Zrotation
    JOINT RightToe
    {
     OFFSET 0.000000 -7.354994 16.712725
     CHANNELS 3 Yrotation Xrotation Zrotation
     End Site
     {
      OFFSET 0.000000 -1.553903 6.764158
     }
    }
   }
  }
 }
 JOINT LeftHip
 {
  OFFSET 8.194923 0.005295 0.000540
  CHANNELS 3 Yrotation Xrotation Zrotation
  JOINT LeftKnee
  {
   OFFSET 0.000000 -42.473320 -0.000511
   CHANNELS 3 Yrotation Xrotation Zrotation
   JOINT LeftAnkle
   {
    OFFSET 0.000000 -41.474259 -0.000865
    CHANNELS 3 Yrotation Xrotation Zrotation
    JOINT LeftToe
    {
     OFFSET 0.000000 -7.354994 16.712725
     CHANNELS 3 Yrotation Xrotation Zrotation
     End Site
     {
      OFFSET 0.000000 -1.553903 6.764158
     }
    }
   }
  }
 }
}
MOTION
Frames: 16
Frame Time: 0.016667
35.228900 92.246610 9.099336 127.724292 -1.624239 0.222074 2.610228 7.861391 6.740275 0.996315 3.525928 2.730096 0.996315 3.525928 2.730096 0.731249 2.648965 2.041177 7.177889 20.987717 -1.223280 13.382910 3.218283 -4.294354 -6.613904 -1.554498 11.956801 -1.408534 -6.919591 62.733330 2.315909 -10.535962 -3.546362 -19.869909 -5.638488 -28.350862 -14.050938 -4.191500 -8.183558 -8.743377 -20.074103 -62.241965 -75.952266 -1.488554 -53.533095 -0.414890 12.043157 26.679824 11.465523 -3.610666 -3.975103 8.218292 11.307188 -1.508394 3.363199 -6.181038 5.273944 -0.151845 0.829726 0.007575 23.766585 -7.365013 10.815414 15.290245 5.929419 1.476413 3.744613 7.866076 -11.500861 -0.057495 -0.821436 -0.367251
35.127371 92.181119 9.290495 127.128462 -1.163218 0.279354 2.621322 8.053929 6.874461 0.989159 3.617403 2.782851 0.989159 3.617403 2.782851 0.725149 2.717629 2.080589 7.306243 21.023823 -1.676971 13.743220 3.354611 -5.146429 -7.525019 -0.505147 11.880731 -6.312872 -8.123909 62.373958 3.417269 -15.366456 -3.660127 -19.771433 -6.724025 -27.680017 -14.254771 -4.040242 -8.205612 -8.423580 -20.407044 -61.640209 -75.520260 -0.992305 -52.867260 -0.401747 11.954516 26.604189 11.157568 -4.373303 -4.064682 8.723545 11.421004 -1.458865 3.575758 -6.184182 5.245291 -0.171311 0.948569 -0.022421 23.764205 -7.593124 10.616999 15.760429 5.636006 1.519611 3.836518 7.996429 -11.563502 -0.033175 -0.678089 -0.259784
35.041747 92.110441 9.505300 126.699777 -0.789518 0.326659 2.548168 8.241938 7.039508 0.944119 3.705336 2.856157 0.944119 3.705336 2.856157 0.690522 2.783492 2.135646 7.467941 21.052760 -2.106483 14.156500 3.482330 -5.964087 -8.531229 0.818602 11.755672 -11.197224 -9.733111 62.152233 5.346666 -20.089415 -3.383046 -19.174954 -7.578992 -27.622150 -14.403395 -3.828409 -8.279781 -8.017752 -20.736477 -61.077531 -75.071746 -0.588296 -52.178291 -0.332442 11.831748 26.616767 10.942436 -5.114052 -4.097262 9.172623 11.701318 -1.405137 3.623197 -6.197272 5.259521 -0.176951 0.991775 -0.084388 23.774770 -7.862432 10.489748 16.155572 5.460312 1.566611 3.852873 8.136292 -11.604196 -0.026633 -0.576638 -0.204465
35.001704 92.047706 9.767569 126.392085 -0.461500 0.338854 2.407302 8.411556 7.228789 0.872119 3.778840 2.941899 0.872119 3.778840 2.941899 0.635655 2.838410 2.200230 7.690890 21.051716 -2.562988 14.689932 3.570342 -6.850116 -9.058739 1.735983 11.889972 -15.845373 -11.341382 61.694614 7.228469 -23.900291 -3.151449 -17.994634 -8.296990 -28.450889 -14.548971 -3.334647 -8.282861 -7.333211 -21.276410 -60.632028 -74.800348 -0.204371 -51.486210 -0.200767 11.733934 26.511826 10.772382 -5.871845 -4.054837 9.590190 12.095585 -1.357808 3.596926 -6.219263 5.281522 -0.168951 0.999154 -0.142655 23.807759 -8.247964 10.398431 16.390311 5.416530 1.647755 4.015761 8.303068 -11.592139 -0.015766 -0.504256 -0.193297
34.958694 91.982418 10.083294 126.216462 -0.043978 0.314711 2.172185 8.553204 7.426989 0.749808 3.840772 3.030117 0.749808 3.840772 3.030117 0.543093 2.884383 2.267021 7.998882 20.974717 -3.057521 15.394560 3.541142 -7.836963 -9.025424 2.250125 12.384966 -19.660325 -12.911145 60.590340 8.492352 -26.666318 -2.861632 -16.482403 -9.097083 -29.774460 -14.444836 -2.894521 -8.264497 -6.518117 -21.789489 -60.261917 -74.713733 0.126523 -50.884795 -0.077862 11.734540 26.280949 10.636842 -6.709564 -3.897285 10.009014 12.568489 -1.308535 3.468394 -6.341700 5.223059 -0.185396 1.045044 -0.191754 23.705636 -8.893087 10.283832 16.666414 5.527780 1.770750 4.908668 8.595277 -11.432124 0.013387 -0.434953 -0.193154
34.901889 91.923512 10.444890 126.206714 0.340694 0.276395 1.855457 8.705790 7.627169 0.611378 3.909270 3.123749 0.611378 3.909270 3.123749 0.438360 2.935170 2.337989 8.366572 20.896823 -3.527304 16.200379 3.523283 -8.795433 -8.795292 2.701501 12.870643 -22.673759 -14.401354 59.418840 9.645922 -29.044594 -2.637814 -14.835627 -9.662783 -31.166075 -14.215206 -2.521841 -8.216537 -5.608305 -22.214694 -59.965308 -74.682318 0.336060 -50.320343 0.068181 11.741589 26.047376 10.508736 -7.508538 -3.757631 10.369325 12.957465 -1.252885 3.256675 -6.357816 5.166468 -0.173554 1.062212 -0.194766 23.542674 -9.553646 10.294690 16.975362 5.718459 1.944983 4.310649 8.782084 -11.570098 -0.027670 -0.500347 -0.208055
34.883101 91.883797 10.808594 126.267286 0.555612 0.291594 1.613189 8.985736 7.805115 0.458941 3.982288 3.221473 0.458941 3.982288 3.221473 0.323056 2.989234 2.412138 8.737213 20.827928 -3.934347 16.992842 3.520703 -9.639921 -8.383720 3.150048 13.380223 -25.614773 -15.764290 58.250679 11.180865 -31.603168 -2.290778 -13.298974 -10.212948 -32.309510 -14.037458 -2.228943 -8.186275 -4.680060 -22.490879 -59.677348 -74.611624 0.386503 -49.746848 0.150700 11.735490 25.931445 10.533605 -8.067852 -3.591600 10.649635 13.349728 -1.226312 2.963007 -6.425654 5.077303 -0.167094 1.086500 -0.191155 23.344768 -10.116932 10.269756 17.253104 5.972114 2.149375 3.842581 9.023117 -11.722150 -0.026995 -0.591259 -0.161667
34.861694 91.866545 11.206789 126.438668 0.835482 0.301453 1.356039 9.163815 7.993053 0.340619 4.054399 3.309761 0.340619 4.054399 3.309761 0.233376 3.042750 2.479022 9.113699 20.764995 -4.247662 17.768857 3.520762 -10.315696 -8.130609 3.733523 13.713960 -28.574078 -17.094616 57.423627 12.814436 -33.651759 -1.708669 -11.930794 -10.756779 -33.321200 -13.936407 -1.900203 -8.122781 -3.809501 -22.743271 -59.358824 -74.443333 0.278478 -49.110136 0.182848 11.721732 25.889997 10.494631 -8.693655 -3.446612 10.868001 13.695925 -1.185072 2.703821 -6.370086 4.970512 -0.153079 1.033726 -0.176845 23.201825 -10.697786 10.249418 17.378247 6.019533 2.302655 3.568378 9.581947 -11.913255 -0.071988 -0.781370 -0.082517
34.874988 91.861511 11.613263 126.634605 1.088314 0.306642 1.146350 9.324510 8.185426 0.228625 4.106566 3.395888 0.228625 4.106566 3.395888 0.148547 3.081307 2.544286 9.456023 20.646255 -4.489456 18.470318 3.404921 -10.861857 -7.844613 3.996332 13.958640 -30.993458 -17.929820 56.529299 14.271574 -35.505346 -1.247970 -10.593723 -11.490261 -34.212655 -13.809768 -1.601954 -8.048193 -2.930050 -22.947135 -59.108831 -74.285654 0.180758 -48.579082 0.262813 11.674899 25.912041 10.397719 -9.259189 -3.288702 11.008906 13.983519 -1.109235 2.551853 -6.270429 4.811388 -0.151191 0.960879 -0.172457 23.189759 -11.204696 10.217436 17.372707 5.885174 2.444986 3.315583 10.293276 -12.235147 -0.047338 -0.977448 0.084364
34.900558 91.864566 12.005471 126.768513 1.350089 0.358936 1.033125 9.482704 8.341048 0.157921 4.153090 3.465355 0.157921 4.153090 3.465355 0.094806 3.115832 2.596802 9.778092 20.464214 -4.676345 19.129065 3.162996 -11.314542 -7.536495 4.163191 14.053296 -32.930478 -18.544137 55.974914 15.551571 -37.598927 -1.117961 -9.163177 -12.286174 -34.927570 -13.637035 -1.381477 -7.913163 -2.015360 -23.118365 -58.963542 -74.216578 0.097676 -48.167405 0.383377 11.642159 25.838562 10.226415 -9.789276 -3.168653 11.211649 14.193878 -1.032361 2.450333 -6.163241 4.613048 -0.149998 0.917841 -0.145698 23.273541 -11.586413 10.124886 17.305512 5.542469 2.593061 3.126932 11.164189 -12.673178 -0.044317 -1.189552 0.282838
34.940498 91.880213 12.385072 126.926204 1.652675 0.456446 0.972988 9.616504 8.485718 0.110498 4.194308 3.526415 0.110498 4.194308 3.526415 0.058598 3.146492 2.642869 10.037677 20.203402 -4.811202 19.672533 2.758173 -11.671307 -7.250113 4.259907 14.057662 -34.666802 -18.863290 55.598595 16.932679 -39.778712 -1.413658 -7.516684 -13.096349 -36.035203 -13.516856 -1.290904 -7.792909 -1.030737 -23.219318 -58.885972 -74.208176 -0.030102 -47.906845 0.460281 11.637448 25.756270 9.886713 -10.297989 -3.064681 11.492243 14.316645 -0.994021 2.383534 -6.025135 4.424286 -0.146326 0.877824 -0.124778 23.273105 -11.898990 9.937898 17.354819 5.020573 2.794523 3.033827 12.188251 -13.216005 -0.017386 -1.391166 0.525208
34.968138 91.906072 12.770894 127.081972 2.022604 0.629839 0.957052 9.704117 8.609842 0.098205 4.233049 3.566756 0.098205 4.233049 3.566756 0.048877 3.175487 2.673167 10.245237 19.871411 -4.911004 20.124139 2.208271 -11.965202 -7.136818 4.332195 14.014865 -36.315828 -19.337062 55.441880 17.742033 -41.366611 -1.259680 -5.875085 -13.819171 -36.878015 -13.348783 -1.337474 -7.591143 -0.092209 -23.237223 -58.911804 -74.156771 -0.302119 -47.753974 0.438499 11.630790 25.738511 9.388924 -10.845573 -3.034907 11.793851 14.360338 -0.958882 2.422855 -5.841869 4.220608 -0.142008 0.851041 -0.102737 23.203683 -12.140151 9.692691 17.538542 4.335588 3.008073 2.412624 13.341905 -13.973536 -0.037989 -1.667329 0.775655
35.022542 91.939332 13.155583 127.320605 2.408007 0.804551 0.984832 9.747745 8.747267 0.100069 4.249809 3.603767 0.100069 4.249809 3.603767 0.049918 3.188078 2.700888 10.362713 19.483877 -4.984943 20.415647 1.535639 -12.199983 -7.170662 4.302794 13.961488 -37.436212 -19.696398 55.199432 18.246492 -42.722310 -1.350848 -4.392073 -14.575885 -37.822830 -13.054220 -1.461116 -7.402342 0.623756 -23.110444 -58.930510 -74.035279 -0.727338 -47.709175 0.366470 11.580636 25.774221 8.685392 -11.319764 -3.028005 12.136218 14.229029 -0.846803 2.522978 -5.611118 3.974334 -0.148722 0.853440 -0.098143 23.047240 -12.379392 9.426748 17.743746 3.569224 3.250621 1.752538 14.617209 -14.874000 -0.034530 -1.954695 1.061525
35.088250 91.969828 13.531546 127.591321 2.792688 0.968608 1.106893 9.792664 8.903820 0.136047 4.262941 3.640779 0.136047 4.262941 3.640779 0.076554 3.198150 2.728373 10.435157 19.061559 -5.096017 20.644085 0.799554 -12.497991 -7.214171 4.213968 13.934131 -38.338805 -19.982585 55.086665 18.659814 -44.311861 -1.394077 -2.857582 -15.246934 -38.647937 -12.832481 -1.657311 -7.202002 1.190532 -22.901592 -58.912676 -73.854500 -1.269247 -47.675395 0.300649 11.505785 25.766806 7.901295 -11.736891 -3.023401 12.462576 13.988208 -0.697400 2.652819 -5.367664 3.714365 -0.169560 0.891572 -0.106819 22.894002 -12.611016 9.202543 17.987821 2.779108 3.475977 1.074129 15.984953 -15.904156 -0.065922 -2.258521 1.371037
35.163861 92.025582 13.886649 128.041825 3.182286 1.132348 1.152788 9.740603 9.058982 0.167998 4.262296 3.688729 0.167998 4.262296 3.688729 0.100176 3.197874 2.764096 10.447881 18.641749 -5.203633 20.765397 0.056490 -12.774633 -7.273489 4.240848 13.874439 -39.202631 -20.157226 55.198075 19.321762 -45.675458 -1.591476 -1.286324 -15.643219 -39.804534 -12.747367 -1.712546 -7.044392 1.781354 -22.695171 -58.950765 -73.750980 -1.746162 -47.670820 0.255101 11.433994 25.745201 7.072721 -12.057549 -3.038905 12.760651 13.605433 -0.537774 2.687215 -5.054528 3.459884 -0.181282 0.902135 -0.113607 22.788201 -12.844658 8.942538 18.081921 1.959598 3.721006 0.326466 17.216005 -17.101480 -0.066204 -2.413694 1.705868
35.227027 92.084348 14.197306 128.549141 3.513431 1.361050 1.231189 9.684483 9.170948 0.221367 4.266677 3.736889 0.221367 4.266677 3.736889 0.139822 3.201502 2.799823 10.424370 18.247479 -5.318411 20.821258 -0.644911 -13.050756 -7.296289 4.293966 13.821061 -39.997606 -20.312447 55.341234 19.717925 -46.675841 -1.565047 -0.098125 -16.017046 -40.723466 -12.646936 -1.855204 -6.870429 2.165396 -22.415816 -59.022231 -73.703594 -2.114867 -47.702221 0.244576 11.412130 25.762309 6.325794 -12.244485 -3.144935 12.999054 13.144945 -0.402135 2.667457 -4.770325 3.229402 -0.185753 0.945894 -0.105757 22.714406 -13.047706 8.666681 18.125313 1.250131 3.955704 -0.356515 18.229778 -18.291212 -0.134520 -2.400083 1.958457
